<?xml version="1.0" encoding="utf-8"?>
<!-- Generator: Adobe Illustrator 24.0.3, SVG Export Plug-In . SVG Version: 6.00 Build 0)  -->
<svg version="1.1" id="Layer_1" xmlns="http://www.w3.org/2000/svg" xmlns:xlink="http://www.w3.org/1999/xlink" x="0px" y="0px"
	 viewBox="0 0 500 300" style="enable-background:new 0 0 500 300;" xml:space="preserve">
<style type="text/css">
	.st0{fill:none;stroke:#000000;stroke-miterlimit:10;}
</style>
<path class="st0" d="M29.96,243.25c14.66,0.61,27.86-10.21,34.55-23.27c6.69-13.06,8.18-28.07,9.55-42.67
	c1.02-10.8,2.03-21.6,3.05-32.4c1.64-17.37,3.5-35.46,12.75-50.25s28.29-25.04,44.47-18.53c13.6,5.47,20.76,20.45,24.08,34.73
	c3.32,14.27,4.19,29.4,10.89,42.44c6.86,13.34,19.79,23.41,34.41,26.78c14.62,3.37,30.65,0,42.67-8.99
	c1.33-5.26-5.2-9.76-10.51-8.68c-5.31,1.09-9.19,5.53-12.57,9.78c-1.64,2.06-3.32,4.25-3.72,6.85c-0.99,6.48,6.03,11.13,12.18,13.4
	c9.76,3.6,20.76,5.78,30.45,1.98c11.63-4.56,18.42-16.37,24.88-27.06c6.46-10.69,14.81-21.98,27.12-24.11
	c9.63-1.67,19.25,2.83,27.36,8.28c28.81,19.36,46.63,50.78,66.97,78.9c4.82,6.66,10.18,13.46,17.78,16.59
	c5.3,2.18,11.18,2.34,16.91,2.47c11.72,0.26,23.44,0.53,35.16,0.79"/>
</svg>
