<?xml version="1.0" encoding="utf-8"?>
<!-- Generator: Adobe Illustrator 24.0.3, SVG Export Plug-In . SVG Version: 6.00 Build 0)  -->
<svg version="1.1" id="Layer_1" xmlns="http://www.w3.org/2000/svg" xmlns:xlink="http://www.w3.org/1999/xlink" x="0px" y="0px"
	 viewBox="0 0 500 500" style="enable-background:new 0 0 500 500;" xml:space="preserve">
<style type="text/css">
	.st0{fill:none;stroke:#FFF200;stroke-width:2;stroke-miterlimit:10;}
</style>
<path class="st0" d="M289.5,19.16c-6.1-0.87-12.23,0.95-18.13,2.76C259.7,25.5,248,29.09,236.77,33.88"/>
<path class="st0" d="M307.25,54.76c-7.4-0.75-14.44,2.98-20.95,6.59c-24.07,13.37-48.14,26.74-72.21,40.11"/>
<path class="st0" d="M331.76,92.92c-11.77,2.08-22.97,7.25-32.19,14.85"/>
<path class="st0" d="M356.6,111.43c-35.05,29.58-68.06,61.58-98.69,95.71"/>
<path class="st0" d="M385.31,126.11c1.38,1.22,0.27,6.46-0.89,7.89c-7.31,9-15.17,17.93-19.25,28.79"/>
<path class="st0" d="M418.47,140.26c-12.48,34.59-21.94,70.27-28.26,106.5"/>
<path class="st0" d="M463.06,146.89c-0.92,3.29-1.84,6.58-2.76,9.87c-3.43,12.24-6.88,24.58-7.8,37.26"/>
<path class="st0" d="M501.9,153.26c-14.3-1.28-28.6-2.55-42.9-3.83c-12.82-1.15-25.74-2.31-38.11-5.85
	c-6.48-1.86-12.75-4.35-18.89-7.12C344.7,110.62,299.31,59.63,280.28-0.26"/>
<path class="st0" d="M288.89-2.99c-0.85,3.32-1.69,6.63-2.54,9.95c2.39-3.28,5.41-6.11,8.85-8.27c-1.77,3.79-3.54,7.58-5.31,11.37
	c4.42-6.06,9.95-11.3,16.24-15.38c-3.21,5.38-6.42,10.76-9.63,16.14c7.02-9.44,16.28-17.19,26.8-22.44
	c-10.06,13.12-17.73,28.09-22.49,43.92c7.89-15.52,17.51-30.16,28.61-43.56c-11.42,11.41-22.83,22.83-34.25,34.24
	c2.43-4.83,5.21-9.49,8.31-13.92c-0.02,2.29-1.22,4.54-3.11,5.83c3.36-7.37,8.49-13.92,14.85-18.93
	c-6.01,6.16-12.02,12.31-18.04,18.47c0.43-2.99,1.73-5.85,3.7-8.15c-1.34,3.53-3.39,6.79-5.99,9.54c1.61-3.35,3.61-6.52,5.94-9.41
	c-2.55,2.09-5.11,4.17-7.66,6.26c0.74-2.35,1.75-4.61,3.01-6.72c-1.86,2.77-4,5.36-6.37,7.71c2.15-4.11,5.18-7.75,8.83-10.6
	c-1.07,7.94-2.14,15.87-3.21,23.81c6.47-8.51,14.11-16.12,22.64-22.56c-4.31,9.23-8.63,18.47-12.94,27.7
	c3.12-10.22,8.87-19.62,16.55-27.05c-7.28,9.92-14.97,19.54-23.02,28.84c10.06-16.91,22.6-32.35,37.08-45.68
	c0.15,3.79-2.44,7.08-4.84,10.02c-9.77,11.97-18.68,24.64-26.65,37.87c5.23-11.85,12.87-22.63,22.32-31.49
	c-8.84,11.33-17.69,22.66-26.53,33.99c13.02-14.01,26.69-27.43,40.95-40.18c-12.69,16.24-25.37,32.48-38.06,48.72
	c6.85-12.82,15.75-24.55,26.27-34.58c-5.29,9.58-11.35,18.73-18.11,27.34c11.45-14.72,23.14-29.68,38.42-40.39
	c-10.07,13.87-20.78,27.27-32.11,40.14c13.21-15.88,26.74-32.04,44.27-42.97c-16.44,17.17-32.49,34.7-48.15,52.58
	c13.71-18.29,29.42-35.09,46.76-49.99c-14.65,18.6-29.83,36.78-45.53,54.51c10.14-14.31,22.62-26.96,36.78-37.31
	c-7.26,12.06-15.19,23.73-23.74,34.92c15.15-20.41,31.4-40.01,48.65-58.69c-0.59,2.74-2.46,5-4.26,7.15
	c-15.64,18.62-31.27,37.24-46.91,55.85c11.71-15.24,25.24-29.08,40.21-41.12c-0.85,4.35-3.61,8.05-6.29,11.59
	c-8.4,11.08-16.79,22.16-25.19,33.23c14.72-16.41,30.82-31.58,48.09-45.29c-14.97,20.34-31.17,39.77-48.49,58.15
	c16.14-21.77,34.38-41.98,54.4-60.25c-15.13,18.18-30.26,36.36-45.39,54.54c10.92-13.08,21.9-26.23,34.71-37.47
	c-10.47,15.61-22.34,30.28-35.41,43.78c18.08-19.65,36.41-39.51,58.7-54.23c-11.04,13.1-22.07,26.19-33.11,39.29
	c19.6-19.16,39.28-38.39,61.26-54.77c-28.15,27.55-55.56,55.86-82.19,84.89c21.29-26.28,43.65-51.76,68.29-74.94
	c-12.03,13.07-24.06,26.14-36.09,39.22c13.18-15.83,26.35-31.66,39.53-47.49c-17.79,17.65-35.67,35.39-55.98,50.07
	c9.19-14.62,20.98-27.61,34.66-38.15c-14.96,14.46-29.92,28.91-44.88,43.37c24.72-27.28,50.55-53.54,77.43-78.7
	c-24.68,25.15-49.78,49.91-75.26,74.25c12.37-15.6,25.81-30.37,40.19-44.14c-12.19,6.68-24.38,13.36-36.58,20.04
	c9.74-12.13,21.25-22.84,34.05-31.68c-12.41,13.75-25.66,26.75-39.64,38.9c18.03-18.9,37.36-36.55,57.81-52.8
	c-8.63,6.59-16.47,14.22-23.3,22.66c2.64-1.63,5.28-3.26,7.92-4.89c-2.91,5.58-6.62,10.74-10.99,15.27
	c5.92-6.37,12.66-11.98,20-16.64c-12.77,11.63-26.24,22.49-40.33,32.48c1.71-2.83,3.43-5.65,5.14-8.48
	c-7.71,4.52-15.41,9.04-23.12,13.56c7.55-10.95,16.96-20.61,27.7-28.45c-6.69,7.59-13.94,14.69-21.67,21.22
	c0.51-1.32,1.83-2.3,3.25-2.39c-11.96,12.31-23.34,25.17-34.11,38.54c16.86-17.3,34.84-33.49,53.8-48.45
	c-7.58,11.17-17.12,20.85-26.59,30.46c-7.75,7.86-15.51,15.73-23.26,23.59c3.83,0.49,6.83,4.49,6.24,8.3
	c3.73-2.46,7.46-4.91,11.18-7.37c9.95-8.9,19.92-17.81,30.69-25.7c-11.23,12.46-22.81,24.6-34.73,36.4
	c2.52-3.57,5.03-7.14,7.55-10.71c-6.3,2.54-12.61,5.07-18.91,7.61c3.3-5.2,7.04-10.11,11.18-14.67c0.17,0.59-0.81,0.95-1.27,0.54
	s-0.48-1.11-0.46-1.73c0.16-3.93,0.83-7.84,1.98-11.61c-2.68,1.47-5.37,2.93-8.05,4.4c-0.05-2.07-0.11-4.15-0.16-6.22
	c-2.56,3.01-5.74,5.48-9.29,7.22c0.61-2.14,1.53-4.18,2.73-6.05c-1.78,2.37-4.26,4.22-7.04,5.24c7.94-12.35,18.06-23.29,29.75-32.17
	c-4.31,5-9.92,8.87-16.13,11.13c4.61-8.19,12.53-14.45,21.56-17.04c-4.47,8.92-8.94,17.85-13.41,26.77
	c37.43-9.46,72.59-27.73,101.85-52.91c-26.11,20.96-41.65,52.78-67.43,74.13c2.25-5.51,6.46-9.95,10.58-14.25
	c14.28-14.9,28.56-29.8,42.84-44.69c-20.39,21.87-40.25,44.23-59.56,67.06c16.17-19.89,36.42-35.98,56.51-51.9
	c-15.47,16.18-31.53,31.79-48.13,46.82c12.48-14.03,25.61-27.49,39.33-40.31c-17.48,20.04-35.49,39.6-54.02,58.66
	c11.21-13.68,23.47-26.5,36.65-38.3c-9.69,11.07-19.94,21.64-30.72,31.65c2.27-5.02,5.8-9.34,9.33-13.57
	c24.16-28.94,50.14-56.35,77.75-82.02c-15.63,13.02-31.26,26.04-46.89,39.05c10.32-12.63,21.22-24.78,32.67-36.39
	c-16.07,15.84-32.21,31.76-45.82,49.76c-10.18,13.46-19.51,28.59-34.39,36.56c-2.62,1.4-5.4,2.57-7.67,4.48
	c-2.28,1.91-4.02,4.77-3.65,7.71c11.41-6.51,21.25-15.76,28.46-26.75c-10.75,14.11-22.64,27.34-35.53,39.53
	c20.16-21.78,40.66-43.23,61.51-64.34c-9.44,14.25-18.87,28.5-28.31,42.75c11.59-12.16,23.86-23.68,36.73-34.48
	c-9.89,11.12-19.79,22.23-29.68,33.35c1.97-4.32,4.67-8.3,7.96-11.72c-9.16,7.15-18.33,14.3-27.49,21.45
	c-3.38,2.64-6.94,5.53-8.22,9.62c21.97-21.37,43.94-42.74,66.71-63.24c16.55-14.9,33.73-29.56,46.18-48.02
	c-37.45,34.46-62.63,81.16-102.53,112.76c33.22-38.63,71.35-72.7,109.35-106.64c-32.55,40.6-69.1,77.99-108.96,111.45
	c42.12-20.73,74.04-57.79,99.3-97.35c-11.82,17.62-27.8,31.95-42.68,47.08c-19.83,20.14-37.94,41.97-54.1,65.16
	c21.92-15.44,40.82-34.7,59.59-53.84c7.74-7.89,15.51-15.82,21.98-24.78c6.15-8.51,11.05-17.85,15.93-27.14
	c-23.41,36.4-50.44,70.52-71.35,108.41c25.89-35.95,50.88-72.55,74.93-109.75c-7.3,19.01-16.66,37.14-26.01,55.23
	c-9.85,19.06-19.7,38.13-29.55,57.19c15.54-35.95,38.29-68.27,56.21-103.09c-8.84,38.07-21.59,75.22-37.98,110.7
	c-0.15-19.16,5.4-37.94,12.66-55.66c7.27-17.72,16.29-34.68,23.61-52.39c-0.31,4.83-2.45,9.32-4.59,13.66
	c-4.97,10.07-10.18,20.01-15.39,29.96c-9.57,18.26-19.34,36.81-33.75,51.56c0.33-17.36,9.27-33.24,17.96-48.28
	c13.37-23.13,26.75-46.26,40.12-69.39c-25.64,28.98-48.11,60.7-67.66,94.09c-2.16,3.69-4.32,7.49-5.05,11.7
	c-1.16,6.65,1.28,13.98-1.81,19.98c5.18-6.92,11.24-13.18,17.97-18.59c-0.7,3.99-1.96,7.88-3.72,11.52
	c1.22-1.82,2.43-3.64,3.65-5.46c-0.38,4.06-0.76,8.11-1.15,12.17c1.45-1.21,2.9-2.41,4.35-3.62c0.15,4.21-0.03,8.43-0.56,12.6
	c19.15-29.46,37.69-59.32,55.61-89.55c-9.58,29.52-19.17,59.05-28.75,88.57c1.93-18.47,11.37-35.19,20.61-51.29
	c-6.86,10.24-13.06,20.93-18.53,31.98c-0.01,0.02-0.02,0.04-0.03,0.06c-3.3,7.65-6.61,15.3-9.91,22.95
	c7.55-10.68,16.16-20.61,25.67-29.59c-3.99,10.37-9.18,20.28-15.46,29.45c1.05-3.88,3.25-7.45,6.25-10.13
	c-0.05,2.71-0.86,5.41-2.31,7.7c2.22-3.55,4.82-6.86,7.74-9.87c-0.62,5.8-2.36,11.47-5.11,16.62c1.37-2.43,3.07-4.67,5.03-6.66
	c0.34,1.37,0.34,2.83,0,4.2c3.2-3.24,6.41-6.48,9.61-9.73c0.66,0.39,0.4,1.42-0.05,2.04c-0.45,0.62-1.05,1.32-0.82,2.05
	c0.23,0.73,1.74,0.3,1.24-0.29c-0.94,1.54-1.87,3.08-2.81,4.62c0.65-1.54,1.3-3.09,1.95-4.63c-0.83,0.27-1.66,0.55-2.48,0.82
	c1.42-11,4.45-21.78,8.98-31.91c-1.94,5.08-4.48,9.93-7.56,14.4c1.86-9.83,4.95-19.43,9.15-28.51
	c-6.16,10.65-12.32,21.3-18.49,31.95c3.08-12.15,7.57-23.94,13.36-35.06c-3.64,7.12-8.23,13.76-13.62,19.67
	c4.76-14.63,10.82-28.84,18.09-42.41c-7.46,13.16-16.19,25.6-26.02,37.1c3.87-12.47,9.03-24.55,15.38-35.96
	c-8.58,18.42-19.23,35.87-31.7,51.91c4.64-16.94,11.86-33.17,21.34-47.95c-10.62,10.8-21.24,21.6-31.86,32.4
	c0.61-4.13,1.73-8.19,3.33-12.04c-7.64,7.13-15.29,14.26-22.93,21.39c3.23-7.11,6.47-14.21,9.7-21.32
	c-4.74,5.93-10.22,11.26-16.28,15.82c3.38-8.45,7.64-16.55,12.68-24.13c-7.43,11.66-16.52,22.25-26.93,31.36
	C405.19,73.6,434.71,36.42,468.1,3.12c-24.42,28.93-49.92,56.96-76.43,84c13.51-19.68,27.28-39.18,41.3-58.5
	c-6.69,14.79-14.01,29.3-21.94,43.46c15.85-18.29,33.77-34.76,53.33-49.01c2.03,3.18,0.45,7.35-1.19,10.74
	c-5.54,11.49-11.39,22.84-17.53,34.02c5.66-6.89,11.94-13.27,18.73-19.04c-10.6,15.97-22.83,30.86-36.43,44.36
	c9.09-8.82,18.19-17.64,27.28-26.45c-8.31,18.56-18.53,36.26-30.46,52.73c4.81-5.16,10.18-9.78,15.99-13.78
	c-2.16,5.24-4.79,10.28-7.86,15.04c8.49-9.73,17.36-19.13,26.6-28.16c-6.95,9.97-13.91,19.94-20.86,29.91
	c1.63-7.08,4.36-13.9,8.07-20.14c-5.03,7.7-11.17,14.68-18.18,20.64c-2.77-1.54-2.49-5.54-1.84-8.64
	c1.37-6.51,2.74-13.02,4.11-19.53c-4.88,2.88-9.75,5.76-14.63,8.64c-0.06-6.1,1.19-12.2,3.63-17.79
	c-5.97,7.44-13.11,13.94-21.08,19.19c-0.27-5.21,0.33-10.46,1.75-15.48c-8.61,7.09-18,13.24-27.94,18.3
	c1.74-5.18,2.87-10.56,3.36-16c-4.08,2.77-8.16,5.55-12.23,8.32c0.66-1.06,2.49,0.12,2.32,1.35c-0.17,1.23-1.34,2.04-2.38,2.73
	s-2.14,1.66-2.07,2.9c1.24,0.04,2.48,0.07,3.72,0.11c-1.59-1.28-3.36-2.33-5.24-3.14c4.67,1.02,9.16,2.83,13.22,5.34
	c-4.84-1.94-9.38-4.63-13.41-7.93c3.28,1.76,6.06,4.42,7.95,7.63c-8.46-3.27-16.12-8.58-22.16-15.34c4.19,3.2,8.37,6.4,12.56,9.59
	c-4.9-4.65-9.46-9.66-13.64-14.96c10.34,7.75,20.69,15.5,31.03,23.26c-7.82-7.87-15.18-16.19-22.03-24.91
	c7.89,5.2,15.77,10.4,23.66,15.61c-8.15-7.59-16.01-15.48-23.58-23.65c12.57,5.74,24.97,11.84,37.17,18.3
	c-11.38-12.3-22.25-25.07-32.57-38.27c13.62,9.63,27.05,19.52,40.3,29.65c-16.28-17.3-31.96-35.17-47-53.56
	c16,16.2,31.8,32.61,47.39,49.21c3.41,3.63,6.87,7.36,8.83,11.94c-24.47-21-46.88-44.41-66.79-69.77
	c15.33,12.24,29.65,25.75,42.76,40.35c-25.09-18.18-48.39-38.81-69.48-61.51c16.19,21.74,30.09,45.18,41.41,69.81
	c-1.9,1.56-4.7,0.01-6.62-1.53c-10.83-8.75-21.16-18.13-30.91-28.08c9.67,10.37,18.47,21.55,26.28,33.37
	c-9.47-9.01-18.64-18.34-27.48-27.97c6.55,7.37,12.48,15.3,17.7,23.66c-6.22-3.05-11.47-8.06-14.79-14.14
	c1.39,2.91,2.78,5.81,4.18,8.72C313,52.32,303.7,34.8,296.24,16.53c8.82,19.5,17.64,39.01,26.46,58.51
	c-11.52-16.87-20.7-35.34-27.19-54.72c19.56,23.39,39.13,46.79,58.69,70.18c4.39,5.25,8.81,10.54,12.23,16.46
	c-2.18-1.97-4.36-3.94-6.54-5.9c15.88,13.42,32.43,26.04,49.57,37.8c0.36-1.13-0.59-2.22-1.46-3.03
	c-9.52-8.89-19.03-17.78-28.55-26.67c26.63,11.82,54.31,21.28,82.61,28.22c-4.11,0.74-8.28-0.57-12.25-1.87
	c-16.38-5.33-32.76-10.67-49.14-16c11.82,6.38,23.92,12.24,36.27,17.54c-10.81-1.36-21.62-2.71-32.43-4.07
	c20.9,5.89,42.73,8.51,64.43,7.74c-16.37-13.75-34.63-25.02-52.82-36.24c19.58,4.76,39.16,9.53,58.75,14.29
	c-17.47-8.88-34.72-18.2-51.73-27.94c0.49-1.09,0.97-2.17,1.46-3.26c9.56,0.52,19.1,1.36,28.6,2.55
	c-5.99-5.69-12.49-10.85-19.39-15.39c-4.68-3.08-9.94-6.39-11.4-11.8c14.6,2.67,29.33,4.62,44.11,5.83
	c-10.32-9.29-20.64-18.59-30.95-27.88c-5.11-4.6-10.49-9.68-11.85-16.41c8.64,1.78,17.28,3.56,25.92,5.34
	c1.13,0.23,2.61,0.29,3.09-0.75c-11.59-9.97-22.18-21.1-31.56-33.18c9.09,5.11,18.17,10.22,27.26,15.32
	c-3.03-2.45-6.07-4.9-9.1-7.35c7.98,1.6,15.96,3.19,23.94,4.79c-1.15-1.76-2.29-3.51-3.44-5.27c5.92,3.02,11.2,7.27,15.42,12.4
	c-15.14-3.25-29.27-9.96-43.25-16.61c3.96,6.72,6.69,14.15,8.03,21.84c-14.66-4.94-26.55-15.63-37.99-26.05
	c6,8.51,10.68,17.95,13.84,27.87c-15.23-10.39-29.31-22.46-41.9-35.92c5.96,13.94,11.26,28.15,15.89,42.58
	c-2.54,2.02-5.07,4.04-7.61,6.06c-10.94-8.66-20.95-18.51-29.8-29.3c6.96,6.38,13.42,13.31,19.31,20.7
	c-8.56-7.11-16.22-15.32-22.7-24.37c9.24,7.14,18.48,14.28,27.71,21.42c1.05-1.95-0.12-4.31-1.27-6.21
	c-2.95-4.87-5.91-9.73-8.86-14.6c1.3,0.78,2.59,1.55,3.89,2.33"/>
</svg>
