<?xml version="1.0" encoding="utf-8"?>
<!-- Generator: Adobe Illustrator 24.0.3, SVG Export Plug-In . SVG Version: 6.00 Build 0)  -->
<svg version="1.1" id="Layer_1" xmlns="http://www.w3.org/2000/svg" xmlns:xlink="http://www.w3.org/1999/xlink" x="0px" y="0px"
	 viewBox="0 0 500 500" style="enable-background:new 0 0 500 500;" xml:space="preserve">
<style type="text/css">
	.st0{fill:none;stroke:#000000;stroke-width:2;stroke-miterlimit:10;}
</style>
<path class="st0" d="M141.88,177.84c14.19-18.48,33.72-32.81,55.6-40.8c20.66-7.54,43.58-9.4,64.86-3.86
	c21.29,5.53,40.76,18.68,52.67,37.17"/>
<path class="st0" d="M-4.27,347.21c60.6,1.63,121.55-11.99,175.7-39.26c-2.74,6.22,4.56,12.07,10.91,14.51
	c23.75,9.1,49.82,9.46,75.26,9.71c29.63,0.29,60.29,0.38,87.42-11.53c2.84-1.24,5.72-2.64,8.82-2.72c3.35-0.09,6.52,1.36,9.58,2.7
	c45.91,20.09,99.69,21.42,146.54,3.64"/>
<path class="st0" d="M-84.35,429.24c54.47,2.6,110.75,4.92,161.71-14.46c3.82,7.61,10.56,13.71,18.5,16.77
	c6.76,2.6,14.14,3.01,21.38,3.34c20.8,0.94,41.81,1.39,62.26-2.55c20.44-3.94,40.49-12.6,54.93-27.61
	c36.02,29.4,92.68,29.66,128.97,0.6c46.94,34.13,115.6,34.81,163.21,1.61"/>
<path class="st0" d="M-98.3,260.31c54.47,2.6,110.75,4.92,161.71-14.46c3.82,7.61,10.56,13.71,18.5,16.77
	c6.76,2.6,14.14,3.01,21.38,3.34c20.8,0.94,41.81,1.39,62.26-2.55s40.49-12.6,54.93-27.61c36.02,29.4,92.68,29.66,128.97,0.6
	c46.94,34.13,115.6,34.81,163.21,1.61"/>
<path class="st0" d="M-47.04,152.78c20.23,3.15,38.62-10.93,54.65-23.66C45.42,99.1,87.22,71.32,134.8,63.2
	c39.66-6.77,80.28,0.64,119.47,9.75c24.09,5.6,48.22,11.87,72.92,13.1c52.86,2.63,106.44-19.41,142.15-58.48"/>
<path class="st0" d="M-1.77,176.48c67.07-3.07,134.29,4.72,201.35,1.58c22.74-1.06,45.4-3.38,68.12-4.71
	c33.85-1.97,67.79-1.73,101.69-1.48c47.62,0.34,95.24,0.69,142.85,1.03"/>
<path class="st0" d="M427.25,8.25c-22.97,28.87-55.14,50.93-91.15,58.93c-18.58,4.12-37.78,4.51-56.81,4.05
	c-18.65-0.45-37.27-1.69-55.81-3.72c-42.2-4.62-84.45-13.34-126.73-9.58S10.61,80.67-9.81,117.89c15.76-15.7,37.99-25.31,56.46-37.7
	s39.92-21.3,62.16-21.6c34.68-0.46,65.98,19.5,99.5,28.37c24.14,6.39,49.41,6.99,74.39,6.75c26.88-0.26,54.06-1.48,79.88-8.94
	c34.98-10.1,65.75-31.12,94.36-53.64c7.98-6.28,16.54-14.06,16.69-24.22"/>
</svg>
