<?xml version="1.0" encoding="utf-8"?>
<!-- Generator: Adobe Illustrator 24.0.3, SVG Export Plug-In . SVG Version: 6.00 Build 0)  -->
<svg version="1.1" id="Layer_1" xmlns="http://www.w3.org/2000/svg" xmlns:xlink="http://www.w3.org/1999/xlink" x="0px" y="0px"
	 viewBox="0 0 200 200" style="enable-background:new 0 0 200 200;" xml:space="preserve">
<style type="text/css">
	.st0{fill:none;stroke:#000000;stroke-miterlimit:10;}
</style>
<path class="st0" d="M53.75,135.64c-7.9-5.51-15-12.16-21-19.68c-8.21-10.27-14.5-22.71-14.61-35.86c-0.02-2.66,0.21-5.35,1.01-7.9
	c1.28-4.09,3.93-7.6,6.58-10.97c6.36-8.1,13.17-16.14,22.02-21.4c10.7-6.36,23.51-8.13,35.95-8.35c12.54-0.22,25.16,1.02,37.23,4.43
	c6.08,1.72,12.07,4.01,17.29,7.57c9.95,6.78,16.51,17.85,19.32,29.56c2.71,11.3,2.12,23.44-2.2,34.23
	c-4.32,10.78-12.42,20.11-22.75,25.41c-11.7,6-25.31,6.66-38.44,7.18c-12.92,0.51-25.95,1.01-38.68-1.2
	c-6.33-1.09-13.55-3.81-15.18-10.02"/>
<path class="st0" d="M62.52,106.34c-1.25,4.04,1.04,8.53,4.48,10.98c3.44,2.45,7.79,3.24,12,3.58c7.42,0.61,14.93,0.05,22.18-1.65
	c2.6-0.61,5.25-1.41,7.34-3.08c1.95-1.56,3.27-3.76,4.35-6c1.74-3.63,2.96-7.51,3.59-11.49"/>
<path class="st0" d="M74.28,63.78c-0.06,10.18,1.27,20.36,3.95,30.18"/>
<path class="st0" d="M100.19,64.02c0,10.97,0,21.95,0,32.92"/>
</svg>
