<?xml version="1.0" encoding="utf-8"?>
<!-- Generator: Adobe Illustrator 24.0.3, SVG Export Plug-In . SVG Version: 6.00 Build 0)  -->
<svg version="1.1" id="Layer_1" xmlns="http://www.w3.org/2000/svg" xmlns:xlink="http://www.w3.org/1999/xlink" x="0px" y="0px"
	 viewBox="0 0 500 500" style="enable-background:new 0 0 500 500;" xml:space="preserve">
<style type="text/css">
	.st0{fill:none;stroke:#000000;stroke-miterlimit:10;}
</style>
<path class="st0" d="M94.23,112.14c-2.48,8.76,3.65,17.91,11.3,22.85s16.75,7.06,24.95,11.01c9.47,4.57,17.72,11.65,23.67,20.32
	c8.64,12.59,12.2,27.86,17.67,42.12s13.96,28.68,28.02,34.64c7.44,3.16,15.73,3.62,23.52,5.78c20.83,5.75,36.45,23,48.22,41.12
	c11.77,18.12,21.04,38.05,35.46,54.15c-3.91,0.05-7.83-1.05-11.15-3.13c3.61,1.86,7.4,3.35,11.31,4.44
	c-0.25-5.52,0.17-11.08,1.25-16.5"/>
<path class="st0" d="M315.39,365.72c3.27-0.21,6.3,1.53,9.29,2.86c3.55,1.59,7.31,2.67,11.05,3.75"/>
<path class="st0" d="M332.13,364.06c-4.02,1.3-7.79,3.35-11.05,6.03c-1.52,1.25-3,2.67-4.88,3.27"/>
</svg>
